<?xml version="1.0" encoding="utf-8"?>
<!-- Generator: Adobe Illustrator 24.3.0, SVG Export Plug-In . SVG Version: 6.00 Build 0)  -->
<svg version="1.1" id="Layer_1" xmlns="http://www.w3.org/2000/svg" xmlns:xlink="http://www.w3.org/1999/xlink" x="0px" y="0px"
	 viewBox="0 0 162 32" style="enable-background:new 0 0 162 32;" xml:space="preserve">
<g>
	<path d="M26.9,1v17.6c0,8.3-5.7,12.4-13,12.4c-7.4,0-13-4.2-13-12.4V1h7v18.1c0,4.2,3.3,5.9,6,5.9c2.5,0,6-1.7,6-5.9V1H26.9z"/>
	<path d="M121.8,19.1v-5.7c0-8.3-5.6-12.4-13-12.4c-7.3,0-13,4.2-13,12.4v5.7c0,4.2-3.5,5.9-6,5.9c-2.7,0-6-1.7-6-5.9v-5.7
		c0-8.3-5.6-12.4-13-12.4c-7.3,0-13,4.2-13,12.4v5.7c0,4.2-3.5,5.9-6,5.9c-2.7,0-6-1.7-6-5.9v-5.7c0-8.3-5.6-12.4-13-12.4v6
		c2.7,0,6,1.7,6,5.9v5.7c0,8.3,5.6,12.4,13,12.4c7.3,0,13-4.2,13-12.4v-5.7c0-4.2,3.5-5.9,6-5.9c2.7,0,6,1.7,6,5.9v5.7
		c0,8.3,5.6,12.4,13,12.4c7.3,0,13-4.2,13-12.4v-5.7c0-4.2,3.5-5.9,6-5.9c2.7,0,6,1.7,6,5.9v5.7c0,8.3,5.6,12.4,13,12.4v-6
		C125.2,25,121.8,23.3,121.8,19.1"/>
	<path d="M154,16c0-4.5-2.6-8.9-7.8-8.9H141v17.7h5.2C151.4,24.9,154,20.5,154,16 M161.1,16c0,7.9-4.8,15-15,15h-12.2V1h12.2
		C156.6,1,161.1,8.1,161.1,16"/>
</g>
</svg>
